HIERARCHY
ROOT Hips
{
	OFFSET 0.00000 0.00000 0.00000
	CHANNELS 6 Xposition Yposition Zposition Zrotation Yrotation Xrotation 
	JOINT LHipJoint
	{
		OFFSET 0 0 0
		CHANNELS 3 Zrotation Yrotation Xrotation
		JOINT LeftHip
		{
			OFFSET 1.65412 -1.54119 0.76744
			CHANNELS 3 Zrotation Yrotation Xrotation
			JOINT LeftKnee
			{
				OFFSET 2.19550 -6.03209 0.00000
				CHANNELS 3 Zrotation Yrotation Xrotation
				JOINT LeftAnkle
				{
					OFFSET 2.38814 -6.56138 0.00000
					CHANNELS 3 Zrotation Yrotation Xrotation
					JOINT LeftToe
					{
						OFFSET 0.17337 -0.47632 1.75875
						CHANNELS 3 Zrotation Yrotation Xrotation
						End Site
						{
							OFFSET 0.00000 -0.00000 0.92050
						}
					}
				}
			}
		}
	}
	JOINT RHipJoint
	{
		OFFSET 0 0 0
		CHANNELS 3 Zrotation Yrotation Xrotation
		JOINT RightHip
		{
			OFFSET -1.40291 -1.54119 0.76744
			CHANNELS 3 Zrotation Yrotation Xrotation
			JOINT RightKnee
			{
				OFFSET -2.22156 -6.10370 0.00000
				CHANNELS 3 Zrotation Yrotation Xrotation
				JOINT RightAnkle
				{
					OFFSET -2.46840 -6.78188 0.00000
					CHANNELS 3 Zrotation Yrotation Xrotation
					JOINT RightToe
					{
						OFFSET -0.15659 -0.43024 1.84117
						CHANNELS 3 Zrotation Yrotation Xrotation
						End Site
						{
							OFFSET -0.00000 -0.00000 0.95587
						}
					}
				}
			}
		}
	}
	JOINT lowerback
	{
		OFFSET 0 0 0
		CHANNELS 3 Zrotation Yrotation Xrotation
		JOINT Chest
		{
			OFFSET -0.01936 1.82120 -0.32061
			CHANNELS 3 Zrotation Yrotation Xrotation
			JOINT Chest2
			{
				OFFSET -0.00532 1.85767 -0.00071
				CHANNELS 3 Zrotation Yrotation Xrotation
				JOINT lowerneck
				{
					OFFSET 0 0 0
					CHANNELS 3 Zrotation Yrotation Xrotation
					JOINT Neck
					{
						OFFSET -0.10687 1.58194 0.10810
						CHANNELS 3 Zrotation Yrotation Xrotation
						JOINT Head
						{
							OFFSET 0.15346 1.57382 -0.25612
							CHANNELS 3 Zrotation Yrotation Xrotation
							End Site
							{
								OFFSET 0.05334 1.61251 -0.10513
							}
						}
					}
				}
				JOINT LeftCollar
				{
					OFFSET 0 0 0
					CHANNELS 3 Zrotation Yrotation Xrotation
					JOINT LeftShoulder
					{
						OFFSET 2.85758 0.89498 -0.01485
CHANNELS 3 Zrotation Xrotation Yrotation
						JOINT LeftElbow
						{
OFFSET 0 -4.791850 -0.000000
CHANNELS 3 Zrotation Xrotation Yrotation
							JOINT LeftWrist
							{
OFFSET 0 -2.655530 0.000000
CHANNELS 3 Zrotation Xrotation Yrotation
								JOINT lhand
								{
									OFFSET 0 0 0
CHANNELS 3 Zrotation Xrotation Yrotation
									JOINT LFingers
									{
OFFSET 0 -0.743900 0.000000
CHANNELS 3 Zrotation Xrotation Yrotation
										End Site
										{
OFFSET 0 -0.599750 0.000000
										}
									}
								}
								JOINT LThumb
								{
OFFSET 0 0.000000 0.000000
CHANNELS 3 Zrotation Xrotation Yrotation
									End Site
									{
OFFSET 0 -0.608910 0.608910
									}
								}
							}
						}
					}
				}
				JOINT RightCollar
				{
					OFFSET 0 0 0
					CHANNELS 3 Zrotation Yrotation Xrotation
					JOINT RightShoulder
					{
						OFFSET -2.93906 0.88031 0.02490
CHANNELS 3 Zrotation Xrotation Yrotation
						JOINT RightElbow
						{
OFFSET 0 -4.772540 -0.000000
CHANNELS 3 Zrotation Xrotation Yrotation
							JOINT RightWrist
							{
OFFSET 0 -2.759950 -0.000000
CHANNELS 3 Zrotation Xrotation Yrotation
								JOINT rhand
								{
									OFFSET 0 0 0
CHANNELS 3 Zrotation Xrotation Yrotation
									JOINT RFingers
									{
OFFSET 0 -0.701620 0.000000
CHANNELS 3 Zrotation Xrotation Yrotation
										End Site
										{
OFFSET 0 -0.565660 0.000000
										}
									}
								}
								JOINT RThumb
								{
OFFSET 0 0.000000 0.000000
CHANNELS 3 Zrotation Xrotation Yrotation
									End Site
									{
OFFSET 0 -0.574300 0.574300
									}
								}
							}
						}
					}
				}
			}
		}
	}
}
MOTION
Frames: 5
Frame Time: 0.008333333333333333
0.352500 16.150100 -0.111900 -1.201100 -0.396100 -0.525400 0.000000 0.000000 0.000000 -16.172300 -4.855100 9.970900 0.000000 0.000000 0.000000 -0.045500 6.021500 -7.181400 0.300100 -3.522200 -9.736300 0.000000 0.000000 0.000000 18.954900 9.159500 5.038600 -0.404100 -4.080900 11.304400 0.075200 -11.455300 -15.188700 -0.035900 1.223400 -3.363800 -1.637500 0.288400 8.203200 -0.774600 0.161000 -1.880200 0.088000 0.127000 -6.580600 -17.257700 -12.873000 -8.915900 9.811500 -18.233000 28.732700 3.707500 -8.930600 13.817600 0.000000 -0.000000 0.000000 2.654100 3.946100 -25.969100 14.745900 -23.790900 3.122700 8.527500 -0.623100 -13.977500 0.000000 0.000000 0.000000 -7.125000 0.000000 0.000000 -17.164900 43.422500 -0.689900 0.000000 -0.000000 0.000000 -1.683300 8.423100 30.320900 -17.474900 -27.479500 -4.304200 -16.167600 2.592900 -7.877400 0.000000 0.000000 0.000000 7.125000 0.000000 -0.000000 7.743300 21.809600 4.351200
0.348505 16.145587 -0.110639 -1.354231 -0.257762 -0.640506 0.000000 0.000000 0.000000 -16.004430 -4.961647 10.115936 0.000000 0.000000 0.000000 -0.045218 6.025450 -7.198226 0.294433 -3.488405 -9.641667 0.000000 0.000000 0.000000 19.149031 9.124116 5.563899 -0.364839 -3.879891 10.738986 0.054806 -11.389350 -15.403894 -0.002636 0.330546 -0.908251 -1.440333 0.260321 8.074193 -0.691670 0.154722 -1.725147 0.066316 0.116263 -6.342004 -16.986344 -12.735911 -9.525851 10.034156 -17.963283 28.056529 3.770113 -8.734633 13.600339 0.000000 0.000000 0.000000 2.639199 3.913479 -24.674121 14.143801 -22.939906 2.883927 8.118399 1.046644 -16.193330 0.000000 0.000000 0.000000 -7.125000 0.000000 0.000000 -18.272685 45.499364 0.233513 0.000000 0.000000 0.000000 -1.477197 8.461362 29.790408 -17.083000 -26.967038 -4.124941 -15.929150 3.128731 -8.229812 0.000000 0.000000 0.000000 7.125000 0.000000 0.000000 7.906398 21.457932 4.508291
0.345887 16.141577 -0.110018 -1.463000 -0.050912 -0.713175 0.000000 0.000000 0.000000 -16.129160 -5.734561 8.602147 0.031905 1.153185 3.170528 0.043067 5.194032 -8.652313 0.304217 -3.546124 -9.803168 0.000000 0.000000 0.000000 19.317145 8.801549 6.014205 -0.312728 -3.594863 9.939458 0.163515 -12.021166 -14.671060 -0.044829 1.366140 -3.756737 -1.209517 0.257338 7.908318 -0.609938 0.183744 -1.645205 0.019239 0.122548 -6.162272 -16.676970 -12.501176 -9.973929 9.890392 -17.573373 28.217850 3.726171 -8.527684 13.642712 0.000000 0.000000 0.000000 2.692633 3.845433 -24.034349 13.361892 -21.815252 2.586285 8.211316 1.398864 -14.698591 0.000000 0.000000 0.000000 -7.125000 0.000000 0.000000 -17.674986 44.080706 -0.414621 0.000000 0.000000 0.000000 -1.554396 8.344052 29.694146 -16.965057 -26.811747 -4.071547 -16.001669 3.164903 -8.161702 0.000000 0.000000 0.000000 7.125000 0.000000 0.000000 7.855879 21.524663 4.466894
0.350874 16.146301 -0.100301 -1.115247 0.496073 -0.678821 0.000000 0.000000 0.000000 -16.356636 -5.695332 10.284531 0.000000 0.000000 0.000000 -0.052761 6.119226 -7.092564 0.300487 -3.524375 -9.742293 0.000000 0.000000 0.000000 18.870890 8.513150 5.447377 -0.375533 -3.935771 10.896079 0.094417 -11.749065 -15.342617 -0.037113 1.236930 -3.401045 -1.414572 0.433080 7.811823 -0.586794 0.396912 -1.954971 0.129276 0.237793 -6.438367 -15.107441 -11.319627 -10.931821 8.689036 -15.764992 29.612191 3.353735 -7.669249 13.842957 0.000000 0.000000 0.000000 2.275857 4.010774 -24.912119 13.836555 -22.500568 2.765251 8.680493 0.979031 -15.293796 0.000000 0.000000 0.000000 -7.125000 0.000000 0.000000 -17.459347 44.704603 -0.131435 0.000000 0.000000 0.000000 -2.221896 7.287770 34.094888 -14.900880 -24.006347 -3.186473 -16.036212 4.037830 -7.591725 0.000000 0.000000 0.000000 7.125000 0.000000 0.000000 7.846888 22.109317 4.356353
0.442216 16.158725 -0.043970 -0.862176 -2.239011 0.613082 0.000000 0.000000 0.000000 -16.702873 -3.211440 8.832576 0.000000 0.000000 0.000000 -0.016605 5.771325 -7.736415 0.233570 -3.110477 -8.586553 0.000000 0.000000 0.000000 17.866933 9.739795 3.981645 -0.387421 -3.996854 11.067672 -0.019290 -9.767637 -14.232123 -0.033811 1.186996 -3.263511 -1.737019 -0.074271 5.183794 0.154265 -0.231104 -3.494986 1.160806 -0.031819 -6.546026 -13.799412 -10.325389 -10.531301 11.957577 -16.056530 30.797762 4.479993 -7.311496 14.546793 0.000000 0.000000 0.000000 1.724600 6.064204 -26.922193 12.946289 -21.208448 2.433793 8.132417 1.004737 -15.163442 0.000000 0.000000 0.000000 -7.125000 0.000000 0.000000 -17.900492 44.516832 -0.220384 0.000000 0.000000 0.000000 -15.948983 -10.750575 58.831667 -44.215772 -50.372619 -21.634656 -7.785000 -12.945617 -4.652485 0.000000 0.000000 0.000000 7.125000 0.000000 0.000000 14.088919 25.256590 6.931499
